<svg width="141" height="28" viewBox="0 0 141 28" fill="none" xmlns="http://www.w3.org/2000/svg">
<path d="M0.569224 27C0.670419 26.0892 0.746315 25.0773 0.796913 23.9641C0.872809 22.8257 0.923407 21.6746 0.948706 20.5109C0.974005 19.3218 0.986654 18.1454 0.986654 16.9817C0.986654 15.8179 0.986654 14.7301 0.986654 13.7181C0.986654 12.7062 0.986654 11.6183 0.986654 10.4546C0.986654 9.29082 0.974005 8.12708 0.948706 6.96333C0.923407 5.77429 0.872809 4.62319 0.796913 3.51004C0.746315 2.37159 0.670419 1.34699 0.569224 0.436234H11.0809C10.8279 1.92886 10.6635 3.63654 10.5876 5.55925C10.537 7.45666 10.499 9.31612 10.4737 11.1376C10.6508 10.8088 10.8405 10.404 11.0429 9.92329C11.2453 9.44262 11.4224 8.81015 11.5742 8.02588C11.726 7.21632 11.8398 6.20437 11.9157 4.99002C12.0169 3.75038 12.0422 2.23245 11.9916 0.436234C12.8265 0.436234 13.7373 0.436234 14.7239 0.436234C15.7106 0.436234 16.6719 0.436234 17.608 0.436234C18.544 0.436234 19.3915 0.436234 20.1505 0.436234C20.9348 0.410936 21.5167 0.385637 21.8961 0.360339C21.9973 0.638625 22.0859 1.00546 22.1618 1.46084C22.2377 1.89092 22.3009 2.3463 22.3515 2.82697C22.4274 3.30765 22.478 3.80098 22.5033 4.30695C22.5286 4.78763 22.5413 5.21771 22.5413 5.5972C22.5413 7.01393 22.3389 8.17767 21.9341 9.08843C21.5293 9.97389 20.998 10.6823 20.3403 11.2135C19.7078 11.7448 18.9868 12.1369 18.1772 12.3899C17.3929 12.6176 16.596 12.7694 15.7865 12.8453C14.9769 12.8959 14.2053 12.9086 13.4716 12.8833C12.738 12.8327 12.1181 12.8074 11.6122 12.8074C11.9916 12.9592 12.3458 13.1615 12.6747 13.4145C13.0289 13.6422 13.4084 13.8699 13.8132 14.0976C14.2432 14.3 14.7366 14.4897 15.2931 14.6668C15.8497 14.8186 16.5075 14.8945 17.2664 14.8945C18.1013 14.8945 18.9615 14.7048 19.8469 14.3253C20.7577 13.9458 21.5672 13.3639 22.2756 12.5797L22.6171 12.6556C22.5666 13.5157 22.516 14.5024 22.4654 15.6155C22.4401 16.7287 22.4274 17.8924 22.4274 19.1068C22.4274 20.3211 22.4401 21.5608 22.4654 22.8257C22.4907 24.0906 22.5413 25.2923 22.6171 26.4308C21.9341 26.7091 21.2131 26.9368 20.4541 27.1138C19.7204 27.2909 18.7211 27.3795 17.4562 27.3795C16.1406 27.3795 15.0907 27.0506 14.3065 26.3928C13.5222 25.7098 12.9024 24.8622 12.447 23.8503C12.0169 22.8383 11.7134 21.7505 11.5363 20.5867C11.3845 19.423 11.258 18.3352 11.1568 17.3232C11.0809 16.3112 11.005 15.4764 10.9291 14.8186C10.8532 14.1355 10.7014 13.794 10.4737 13.794C10.4737 14.806 10.4737 15.8938 10.4737 17.0576C10.499 18.2213 10.5243 19.3851 10.5496 20.5488C10.6002 21.7125 10.6635 22.851 10.7394 23.9641C10.8152 25.0773 10.9291 26.0892 11.0809 27H0.569224ZM36.0298 27.3795C33.3228 27.3795 31.1471 27.0126 29.5027 26.279C27.8583 25.5453 26.5933 24.5587 25.7079 23.319C24.8477 22.0541 24.2785 20.5867 24.0002 18.917C23.7219 17.2473 23.5828 15.4637 23.5828 13.5663C23.5828 11.593 23.7219 9.78415 24.0002 8.13973C24.2785 6.4953 24.8603 5.07857 25.7458 3.88952C26.6313 2.67518 27.8962 1.73912 29.5406 1.08135C31.185 0.398286 33.3607 0.056752 36.0677 0.056752C38.7747 0.056752 40.9377 0.398286 42.5569 1.08135C44.176 1.73912 45.4156 2.67518 46.2758 3.88952C47.1613 5.07857 47.7305 6.4953 47.9835 8.13973C48.2618 9.78415 48.4009 11.593 48.4009 13.5663C48.4009 15.5143 48.2618 17.3358 47.9835 19.0309C47.7305 20.7006 47.1613 22.1553 46.2758 23.3949C45.4156 24.6346 44.1633 25.6086 42.5189 26.3169C40.8998 27.0253 38.7367 27.3795 36.0298 27.3795ZM35.9918 26.5826C36.2195 26.5826 36.3966 26.2537 36.5231 25.5959C36.6749 24.9128 36.7887 23.9894 36.8646 22.8257C36.9405 21.6619 36.9785 20.2958 36.9785 18.7273C37.0038 17.1335 37.0164 15.4131 37.0164 13.5663C37.0164 11.7195 37.0038 10.0245 36.9785 8.48126C36.9785 6.91273 36.9405 5.5719 36.8646 4.45875C36.7887 3.3203 36.6749 2.43484 36.5231 1.80237C36.3966 1.1699 36.2195 0.853666 35.9918 0.853666C35.7641 0.853666 35.5744 1.1699 35.4226 1.80237C35.2961 2.43484 35.1949 3.3203 35.119 4.45875C35.0431 5.5719 34.9925 6.91273 34.9672 8.48126C34.9672 10.0245 34.9672 11.7195 34.9672 13.5663C34.9672 15.3372 34.9672 17.0196 34.9672 18.6134C34.9925 20.182 35.0431 21.5608 35.119 22.7498C35.1949 23.9388 35.2961 24.8749 35.4226 25.558C35.5744 26.241 35.7641 26.5826 35.9918 26.5826ZM63.9822 13.4145C65.2218 13.4651 66.3097 13.6043 67.2458 13.832C68.2071 14.0344 69.004 14.3885 69.6365 14.8945C70.2943 15.3752 70.7876 16.033 71.1165 16.8678C71.4707 17.7027 71.6478 18.7779 71.6478 20.0934C71.6478 22.5474 70.8888 24.3183 69.3709 25.4062C67.8782 26.4687 65.6013 27 62.5402 27H49.5239C49.6251 26.0892 49.701 25.0773 49.7516 23.9641C49.8275 22.8257 49.8781 21.6746 49.9034 20.5109C49.9287 19.3218 49.9414 18.1454 49.9414 16.9817C49.9414 15.8179 49.9414 14.7301 49.9414 13.7181C49.9414 12.7062 49.9414 11.6183 49.9414 10.4546C49.9414 9.29082 49.9287 8.12708 49.9034 6.96333C49.8781 5.77429 49.8275 4.62319 49.7516 3.51004C49.701 2.37159 49.6251 1.34699 49.5239 0.436234H62.4643C64.1087 0.436234 65.4369 0.588027 66.4488 0.891614C67.4608 1.1952 68.2451 1.63793 68.8016 2.2198C69.3835 2.77638 69.7756 3.45944 69.978 4.26901C70.1804 5.05327 70.2816 5.93873 70.2816 6.92538C70.2816 7.81084 70.1804 8.63305 69.978 9.39202C69.8009 10.1257 69.4721 10.7708 68.9914 11.3274C68.5107 11.8587 67.8656 12.2887 67.056 12.6176C66.2465 12.9465 65.2218 13.1362 63.9822 13.1868V13.4145ZM59.8458 12.9212C60.0988 12.9212 60.3139 12.7568 60.491 12.4279C60.6681 12.099 60.8072 11.6689 60.9084 11.1376C61.0096 10.5811 61.0728 9.93594 61.0981 9.20228C61.1487 8.46861 61.174 7.697 61.174 6.88743C61.174 4.83823 61.0855 3.38355 60.9084 2.52339C60.7313 1.63793 60.3771 1.1952 59.8458 1.1952H59.8079V12.9212H59.8458ZM59.8079 26.241C60.4404 26.241 60.8578 25.7098 61.0602 24.6472C61.2626 23.5594 61.3638 22.0794 61.3638 20.2073C61.3638 18.0569 61.2626 16.4504 61.0602 15.3878C60.8578 14.3253 60.4404 13.7561 59.8079 13.6802V26.241ZM84.6791 0.436234C86.0958 0.436234 87.3608 0.575378 88.4739 0.853666C89.5871 1.13195 90.5358 1.57468 91.3201 2.18185C92.1043 2.78902 92.6988 3.57329 93.1036 4.53464C93.5337 5.496 93.7487 6.65975 93.7487 8.02588C93.7487 9.8474 93.4705 11.3147 92.9139 12.4279C92.3573 13.5157 91.611 14.3632 90.6749 14.9704C89.7642 15.5523 88.7143 15.9444 87.5252 16.1468C86.3362 16.3492 85.1092 16.4504 83.8443 16.4504H82.5161C82.5161 18.2466 82.5414 20.0934 82.592 21.9908C82.6426 23.8629 82.7564 25.5327 82.9335 27H72.6116C72.7128 26.0892 72.7887 25.0773 72.8393 23.9641C72.9152 22.8257 72.9658 21.6746 72.9911 20.5109C73.0164 19.3218 73.029 18.1454 73.029 16.9817C73.029 15.8179 73.029 14.7301 73.029 13.7181C73.029 12.7062 73.029 11.6183 73.029 10.4546C73.029 9.29082 73.0164 8.12708 72.9911 6.96333C72.9658 5.77429 72.9152 4.62319 72.8393 3.51004C72.7887 2.37159 72.7128 1.34699 72.6116 0.436234H84.6791ZM82.5161 15.6914C82.9967 15.6914 83.4015 15.021 83.7304 13.6802C84.0846 12.3393 84.2617 10.4546 84.2617 8.02588C84.2617 6.60915 84.2111 5.45805 84.1099 4.57259C84.034 3.68713 83.9201 2.99142 83.7684 2.48544C83.6166 1.97946 83.4268 1.63793 83.1991 1.46084C82.9967 1.28375 82.7817 1.1952 82.554 1.1952H82.5161V15.6914ZM106.809 13.7181V13.5284L105.025 19.8278C105.05 21.118 105.076 22.383 105.101 23.6226C105.126 24.8622 105.164 25.988 105.215 27H94.5133C94.6145 26.0892 94.6904 25.0773 94.741 23.9641C94.8169 22.8257 94.8675 21.6746 94.8928 20.5109C94.9181 19.3218 94.9308 18.1454 94.9308 16.9817C94.9308 15.8179 94.9308 14.7301 94.9308 13.7181C94.9308 12.7062 94.9308 11.6183 94.9308 10.4546C94.9308 9.29082 94.9181 8.12708 94.8928 6.96333C94.8675 5.77429 94.8169 4.62319 94.741 3.51004C94.6904 2.37159 94.6145 1.34699 94.5133 0.436234H105.215C105.164 1.1952 105.126 2.14391 105.101 3.28235C105.076 4.3955 105.05 5.5719 105.025 6.81154C105 8.05118 104.987 9.29082 104.987 10.5305C104.987 11.7448 104.987 12.8074 104.987 13.7181V14.7807L106.771 8.48126C106.745 6.96333 106.72 5.4707 106.695 4.00337C106.669 2.53604 106.631 1.34699 106.581 0.436234H116.903C116.802 1.34699 116.713 2.37159 116.637 3.51004C116.587 4.62319 116.549 5.77429 116.523 6.96333C116.498 8.12708 116.485 9.29082 116.485 10.4546C116.485 11.6183 116.485 12.7062 116.485 13.7181C116.485 14.7301 116.485 15.8179 116.485 16.9817C116.485 18.1454 116.498 19.3218 116.523 20.5109C116.549 21.6746 116.587 22.8257 116.637 23.9641C116.713 25.0773 116.802 26.0892 116.903 27H106.581C106.631 26.0892 106.669 25.0773 106.695 23.9641C106.72 22.8257 106.745 21.6746 106.771 20.5109C106.796 19.3218 106.809 18.1454 106.809 16.9817C106.809 15.8179 106.809 14.7301 106.809 13.7181ZM118.046 27C118.147 26.0892 118.223 25.0773 118.273 23.9641C118.349 22.8257 118.4 21.6746 118.425 20.5109C118.45 19.3218 118.463 18.1454 118.463 16.9817C118.463 15.8179 118.463 14.7301 118.463 13.7181C118.463 12.7062 118.463 11.6183 118.463 10.4546C118.463 9.29082 118.45 8.12708 118.425 6.96333C118.4 5.77429 118.349 4.62319 118.273 3.51004C118.223 2.37159 118.147 1.34699 118.046 0.436234H128.557C128.304 1.92886 128.14 3.63654 128.064 5.55925C128.013 7.45666 127.975 9.31612 127.95 11.1376C128.127 10.8088 128.317 10.404 128.519 9.92329C128.722 9.44262 128.899 8.81015 129.051 8.02588C129.202 7.21632 129.316 6.20437 129.392 4.99002C129.493 3.75038 129.519 2.23245 129.468 0.436234C130.303 0.436234 131.214 0.436234 132.2 0.436234C133.187 0.436234 134.148 0.436234 135.084 0.436234C136.021 0.436234 136.868 0.436234 137.627 0.436234C138.411 0.410936 138.993 0.385637 139.373 0.360339C139.474 0.638625 139.562 1.00546 139.638 1.46084C139.714 1.89092 139.777 2.3463 139.828 2.82697C139.904 3.30765 139.954 3.80098 139.98 4.30695C140.005 4.78763 140.018 5.21771 140.018 5.5972C140.018 7.01393 139.815 8.17767 139.411 9.08843C139.006 9.97389 138.474 10.6823 137.817 11.2135C137.184 11.7448 136.463 12.1369 135.654 12.3899C134.869 12.6176 134.072 12.7694 133.263 12.8453C132.453 12.8959 131.682 12.9086 130.948 12.8833C130.214 12.8327 129.595 12.8074 129.089 12.8074C129.468 12.9592 129.822 13.1615 130.151 13.4145C130.505 13.6422 130.885 13.8699 131.29 14.0976C131.72 14.3 132.213 14.4897 132.77 14.6668C133.326 14.8186 133.984 14.8945 134.743 14.8945C135.578 14.8945 136.438 14.7048 137.323 14.3253C138.234 13.9458 139.044 13.3639 139.752 12.5797L140.094 12.6556C140.043 13.5157 139.992 14.5024 139.942 15.6155C139.917 16.7287 139.904 17.8924 139.904 19.1068C139.904 20.3211 139.917 21.5608 139.942 22.8257C139.967 24.0906 140.018 25.2923 140.094 26.4308C139.411 26.7091 138.69 26.9368 137.931 27.1138C137.197 27.2909 136.198 27.3795 134.933 27.3795C133.617 27.3795 132.567 27.0506 131.783 26.3928C130.999 25.7098 130.379 24.8622 129.923 23.8503C129.493 22.8383 129.19 21.7505 129.013 20.5867C128.861 19.423 128.734 18.3352 128.633 17.3232C128.557 16.3112 128.481 15.4764 128.406 14.8186C128.33 14.1355 128.178 13.794 127.95 13.794C127.95 14.806 127.95 15.8938 127.95 17.0576C127.975 18.2213 128.001 19.3851 128.026 20.5488C128.077 21.7125 128.14 22.851 128.216 23.9641C128.292 25.0773 128.406 26.0892 128.557 27H118.046Z" fill="#FFAA5C"/>
</svg>
