<svg width="117" height="145" viewBox="0 0 117 145" fill="none" xmlns="http://www.w3.org/2000/svg">
<path d="M6.70985 18.7077C-2.24711 32.1432 4.32382 65.5628 4.32382 81.9373C4.32382 95.4581 4.32382 108.979 4.32382 122.5C4.32382 134.667 64.7354 128.465 75.3743 128.465C83.1341 128.465 104.035 136.024 111.165 130.321C117.684 125.105 114.081 109.763 114.081 102.351C114.081 88.1975 109.309 74.223 109.309 60.3306C109.309 54.1826 111.159 17.7198 105.465 16.4543C94.4039 13.9963 80.0469 16.3217 68.7465 16.3217C60.5902 16.3217 47.5813 13.7079 40.1142 16.8519C29.8368 21.1792 15.5421 18.7077 4.32382 18.7077" stroke="#E6ECED" stroke-width="3" stroke-linecap="round"/>
<path d="M6.89722 17.9668C6.71872 12.9688 4.23608 8.1845 4.23608 3.06445" stroke="#E6ECED" stroke-width="3" stroke-linecap="round"/>
<path d="M15.9451 19.0313C15.9451 14.9719 16.159 10.093 14.8806 6.25781" stroke="#E6ECED" stroke-width="3" stroke-linecap="round"/>
<path d="M25.5252 20.0957C27.5658 15.5044 27.1219 10.6293 27.1219 5.72559" stroke="#E6ECED" stroke-width="3" stroke-linecap="round"/>
<path d="M42.0242 15.8379C42.0242 11.3613 41.492 6.97954 41.492 2.53223" stroke="#E6ECED" stroke-width="3" stroke-linecap="round"/>
<path d="M51.6044 15.8379C51.6044 11.6921 52.6688 7.69169 52.6688 3.59668" stroke="#E6ECED" stroke-width="3" stroke-linecap="round"/>
<path d="M63.3134 15.3057C63.7694 11.8857 64.9974 8.212 66.5067 5.19336" stroke="#E6ECED" stroke-width="3" stroke-linecap="round"/>
<path d="M73.4257 16.9024C74.8259 15.1521 73.9579 11.0442 73.9579 8.9781C73.9579 6.65206 73.9579 4.32603 73.9579 2" stroke="#E6ECED" stroke-width="3" stroke-linecap="round"/>
<path d="M83.0058 15.8379C83.0058 11.8163 84.4601 8.81396 85.6669 5.19336" stroke="#E6ECED" stroke-width="3" stroke-linecap="round"/>
<path d="M92.0536 14.7735C94.289 14.5251 93.6503 7.47632 93.6503 5.72559" stroke="#E6ECED" stroke-width="3" stroke-linecap="round"/>
<path d="M100.569 16.3701C101.377 16.1682 102.805 12.2181 103.23 11.3435C103.791 10.1918 103.763 9.08949 103.763 7.85449" stroke="#E6ECED" stroke-width="3" stroke-linecap="round"/>
<path d="M106.956 16.9024C109.563 14.433 112.941 13.1855 113.875 9.45117" stroke="#E6ECED" stroke-width="3" stroke-linecap="round"/>
<path d="M5.30054 126.009C5.30054 130.055 4.76831 134.135 4.76831 138.25" stroke="#E6ECED" stroke-width="3" stroke-linecap="round"/>
<path d="M16.4773 127.606C14.4091 129.933 16.4773 135.5 16.4773 138.25" stroke="#E6ECED" stroke-width="3" stroke-linecap="round"/>
<path d="M26.0574 131.331C26.2534 133.487 27.1219 135.529 27.1219 137.718" stroke="#E6ECED" stroke-width="3" stroke-linecap="round"/>
<path d="M38.2986 131.331C37.433 135.01 37.2342 138.743 37.2342 142.508" stroke="#E6ECED" stroke-width="3" stroke-linecap="round"/>
<path d="M47.8787 132.396V142.508" stroke="#E6ECED" stroke-width="3" stroke-linecap="round"/>
<path d="M59.5878 130.799C59.5878 133.999 60.4282 136.822 61.1845 139.847" stroke="#E6ECED" stroke-width="3" stroke-linecap="round"/>
<path d="M70.7645 130.799V137.718" stroke="#E6ECED" stroke-width="3" stroke-linecap="round"/>
<path d="M82.4736 130.799V140.912" stroke="#E6ECED" stroke-width="3" stroke-linecap="round"/>
<path d="M90.457 132.928V139.315" stroke="#E6ECED" stroke-width="3" stroke-linecap="round"/>
<path d="M98.9726 134.525V140.912" stroke="#E6ECED" stroke-width="3" stroke-linecap="round"/>
<path d="M107.488 133.46V141.444" stroke="#E6ECED" stroke-width="3" stroke-linecap="round"/>
<path d="M112.278 129.735C112.278 132.998 112.465 136.082 113.875 139.078C114.342 140.071 114.939 140.853 114.939 141.976" stroke="#E6ECED" stroke-width="3" stroke-linecap="round"/>
</svg>
